<?xml version="1.0" encoding="UTF-8"?>
<svg id="Layer_2" data-name="Layer 2" xmlns="http://www.w3.org/2000/svg" viewBox="0 0 130.43 128.51">
  <defs>
    <style>
      .cls-1 {
        fill: #ff1243;
      }

      .cls-1, .cls-2 {
        stroke-width: 0px;
      }

      .cls-2 {
        fill: #007079;
      }
    </style>
  </defs>
  <g id="Isolation_Mode" data-name="Isolation Mode">
    <g>
      <path class="cls-2" d="M126.94,108.3c8.43-21.78,1.65-42.46-20.73-63.23-14.11-13.1-37.32-17.17-49.32-12.63-4.59,1.73-7.12.9-9.57.09-2.78-.92-5.65-1.86-9.87,1.21-1.81-1.14-5.84-4.3-9.12-11.15,2.24.21,4.36.31,6.24.31,4.01,0,7.06-.36,8.52-.58,2.14,1.7,8.57,5.69,21.88,5.69,2.68,0,5.64-.16,8.89-.54,23.24-2.68,32.62-17.08,33.01-17.69.28-.45.37-.99.25-1.5-.12-.51-.45-.96-.91-1.22-.6-.36-15.04-8.72-34.26-6.75-17.36,1.77-27.16,14.77-29.44,18.15-2.15.31-8.39,1-15.88.02-.53-1.51-1.02-3.13-1.44-4.91-.25-1.05-1.3-1.7-2.35-1.45-1.05.25-1.7,1.3-1.45,2.35,3.17,13.43,9.62,19.58,13.11,22.02-2.67,3.34-1.81,6.28-1.09,8.71.48,1.64.94,3.18.48,5-1.49,5.84-3.42,11.63-3.44,11.69-.34,1.02.21,2.13,1.23,2.47,1.02.34,2.13-.21,2.47-1.23.02-.06,1.99-5.98,3.52-11.96.73-2.86.04-5.19-.51-7.07-.8-2.69-1.19-4.05,1.74-6.54,3.14-2.66,4.58-2.19,7.19-1.32,2.66.88,6.29,2.08,12.18-.14,9.65-3.65,31.55-.91,45.28,11.84,21.07,19.56,27.53,38.85,19.74,58.97-1.02,2.63-.58,5.12-.18,7.31.51,2.85.68,4.28-.96,5.71-2.55,2.22-4.92,1.89-7.67,1.51-2.57-.36-5.48-.76-8.1,1.42-3.49,2.91-29.69,2.85-44.22-5.25-.94-.53-2.13-.19-2.65.75-.52.94-.19,2.13.75,2.65,9.23,5.15,23.45,7.51,34.29,7.51,6.78,0,12.24-.92,14.33-2.66,1.23-1.03,2.66-.89,5.06-.56,3.06.43,6.87.95,10.77-2.43,3.39-2.95,2.75-6.49,2.25-9.34-.33-1.85-.64-3.6-.02-5.22ZM72.36,4.18c13.96-1.42,25.45,3.11,29.9,5.21-3.15,3.7-12.09,12.26-28.84,14.19-16.28,1.88-24.26-1.9-27.09-3.75,2.81-3.83,11.67-14.18,26.02-15.65Z"/>
      <path class="cls-1" d="M4.63,104.3c-.35-1.51-.46-3.01-.46-4.63,0-12.28,7.64-25.37,23.4-25.37,12.39,0,17.72,7.53,19.69,15.64l-42.62,14.36ZM28.49,128.51c9.03,0,17.26-3.59,22.82-9.38.35-.35.35-.81,0-1.27l-1.62-1.74c-.35-.46-.93-.46-1.39,0-4.63,4.86-12.39,8.22-19.57,8.22-12.39,0-20.15-7.3-23.17-16.1l45.64-15.64c.35-.12.69-.46.58-.93-1.74-11.7-9.38-21.54-24.09-21.54S0,81.37,0,99.67c0,16.68,10.89,28.84,28.49,28.84"/>
    </g>
  </g>
</svg>